<svg preserveAspectRatio="none" width="100%" height="100%" overflow="visible" style="display: block;" viewBox="0 0 48 48" fill="none" xmlns="http://www.w3.org/2000/svg">
<g id="Frame">
<path id="Vector" d="M37.0454 24.1988L27.3741 20.625L23.8116 10.9463C23.6006 10.3731 23.2189 9.87849 22.718 9.5291C22.2171 9.17971 21.6211 8.99238 21.0104 8.99238C20.3996 8.99238 19.8036 9.17971 19.3027 9.5291C18.8018 9.87849 18.4201 10.3731 18.2091 10.9463L14.6241 20.625L4.94535 24.1875C4.37222 24.3985 3.87759 24.7802 3.5282 25.2811C3.17881 25.782 2.99148 26.378 2.99148 26.9888C2.99148 27.5995 3.17881 28.1955 3.5282 28.6964C3.87759 29.1973 4.37222 29.579 4.94535 29.79L14.6241 33.375L18.1866 43.0538C18.3976 43.6269 18.7793 44.1215 19.2802 44.4709C19.7811 44.8203 20.3771 45.0076 20.9879 45.0076C21.5986 45.0076 22.1946 44.8203 22.6955 44.4709C23.1964 44.1215 23.5781 43.6269 23.7891 43.0538L27.3741 33.375L37.0529 29.8125C37.626 29.6015 38.1206 29.2198 38.47 28.7189C38.8194 28.218 39.0067 27.622 39.0067 27.0113C39.0067 26.4005 38.8194 25.8045 38.47 25.3036C38.1206 24.8027 37.626 24.421 37.0529 24.21L37.0454 24.1988ZM25.6866 30.7913C25.483 30.8663 25.2981 30.9846 25.1447 31.1381C24.9912 31.2915 24.8729 31.4764 24.7979 31.68L20.9991 41.9719L17.2079 31.6875C17.1329 31.4818 17.0139 31.2949 16.859 31.1401C16.7042 30.9852 16.5174 30.8662 16.3116 30.7913L6.02723 27L16.3116 23.2088C16.5174 23.1338 16.7042 23.0148 16.859 22.8599C17.0139 22.7051 17.1329 22.5183 17.2079 22.3125L20.9991 12.0281L24.7904 22.3125C24.8654 22.5161 24.9837 22.701 25.1372 22.8545C25.2906 23.0079 25.4755 23.1262 25.6791 23.2013L35.971 27L25.6866 30.7913ZM26.9991 7.5C26.9991 7.10218 27.1571 6.72065 27.4384 6.43934C27.7197 6.15804 28.1013 6 28.4991 6H31.4991V3C31.4991 2.60218 31.6571 2.22064 31.9384 1.93934C32.2197 1.65804 32.6013 1.5 32.9991 1.5C33.3969 1.5 33.7785 1.65804 34.0598 1.93934C34.3411 2.22064 34.4991 2.60218 34.4991 3V6H37.4991C37.8969 6 38.2785 6.15804 38.5598 6.43934C38.8411 6.72065 38.9991 7.10218 38.9991 7.5C38.9991 7.89783 38.8411 8.27936 38.5598 8.56066C38.2785 8.84197 37.8969 9 37.4991 9H34.4991V12C34.4991 12.3978 34.3411 12.7794 34.0598 13.0607C33.7785 13.342 33.3969 13.5 32.9991 13.5C32.6013 13.5 32.2197 13.342 31.9384 13.0607C31.6571 12.7794 31.4991 12.3978 31.4991 12V9H28.4991C28.1013 9 27.7197 8.84197 27.4384 8.56066C27.1571 8.27936 26.9991 7.89783 26.9991 7.5ZM46.4991 16.5C46.4991 16.8978 46.3411 17.2794 46.0598 17.5607C45.7785 17.842 45.3969 18 44.9991 18H43.4991V19.5C43.4991 19.8978 43.3411 20.2794 43.0598 20.5607C42.7785 20.842 42.3969 21 41.9991 21C41.6013 21 41.2197 20.842 40.9384 20.5607C40.6571 20.2794 40.4991 19.8978 40.4991 19.5V18H38.9991C38.6013 18 38.2197 17.842 37.9384 17.5607C37.6571 17.2794 37.4991 16.8978 37.4991 16.5C37.4991 16.1022 37.6571 15.7206 37.9384 15.4393C38.2197 15.158 38.6013 15 38.9991 15H40.4991V13.5C40.4991 13.1022 40.6571 12.7206 40.9384 12.4393C41.2197 12.158 41.6013 12 41.9991 12C42.3969 12 42.7785 12.158 43.0598 12.4393C43.3411 12.7206 43.4991 13.1022 43.4991 13.5V15H44.9991C45.3969 15 45.7785 15.158 46.0598 15.4393C46.3411 15.7206 46.4991 16.1022 46.4991 16.5Z" fill="var(--fill-0, #D0FF71)"/>
</g>
</svg>
