<svg preserveAspectRatio="none" width="100%" height="100%" overflow="visible" style="display: block;" viewBox="0 0 48 48" fill="none" xmlns="http://www.w3.org/2000/svg">
<g id="Frame">
<path id="Vector" d="M44.5605 28.9395L40.0605 24.4395C39.7792 24.1583 39.3977 24.0003 39 24.0003C38.6023 24.0003 38.2208 24.1583 37.9395 24.4395L24 38.379V45H30.621L44.5605 31.0605C44.8417 30.7792 44.9997 30.3977 44.9997 30C44.9997 29.6023 44.8417 29.2208 44.5605 28.9395ZM29.379 42H27V39.621L34.5 32.121L36.879 34.5L29.379 42ZM39 32.379L36.621 30L39 27.621L41.379 30L39 32.379ZM27 27V21H30V27H27ZM21 27V18H24V27H21ZM15 27V12H18V27H15Z" fill="var(--fill-0, #D0FF71)"/>
<path id="Vector_2" d="M18 45H9C8.20435 45 7.44129 44.6839 6.87868 44.1213C6.31607 43.5587 6 42.7956 6 42V6C6 5.20435 6.31607 4.44129 6.87868 3.87868C7.44129 3.31607 8.20435 3 9 3H33C33.7956 3 34.5587 3.31607 35.1213 3.87868C35.6839 4.44129 36 5.20435 36 6V21H33V6H9V42H18V45Z" fill="var(--fill-0, #D0FF71)"/>
</g>
</svg>
