<svg width="83" height="64" viewBox="0 0 83 64" fill="none" xmlns="http://www.w3.org/2000/svg">
<path d="M79.3363 41.1075C79.7718 41.1079 80.2032 41.0226 80.6057 40.8563C81.0083 40.69 81.3742 40.4461 81.6825 40.1384C81.9908 39.8308 82.2354 39.4654 82.4025 39.0631C82.5696 38.6609 82.6558 38.2297 82.6562 37.7942C82.6567 37.3586 82.5713 36.9272 82.4051 36.5247C82.2388 36.1221 81.9949 35.7562 81.6872 35.448C81.3795 35.1397 81.0141 34.895 80.6119 34.7279C80.2097 34.5608 79.7785 34.4746 79.3429 34.4742C78.4633 34.4733 77.6193 34.8219 76.9967 35.4432C76.3741 36.0646 76.0238 36.9079 76.0229 37.7875C76.022 38.6671 76.3706 39.5111 76.992 40.1337C77.6134 40.7563 78.4566 41.1066 79.3363 41.1075ZM76.0162 28.7575H73.1829C71.3629 28.7575 70.3829 30.1242 70.3829 32.3975V40.6175H65.0163V28.7575H62.7362C60.9129 28.7575 59.9362 30.1242 59.9362 32.3975V40.6175H54.5696V24.3708H59.9362V26.8375C60.8162 24.9242 62.0229 24.3708 63.8129 24.3708H70.3862V26.8375C71.2663 24.9242 72.4696 24.3708 74.2596 24.3708H76.0162V28.7575ZM53.3962 33.7608H42.1996C42.4929 35.5808 43.6329 36.6208 45.5529 36.6208C46.9863 36.6208 47.9929 36.0375 48.3196 34.9975L53.0696 36.3308C51.8996 39.1575 49.0029 40.8775 45.5529 40.8775C39.7262 40.8775 37.0562 36.3608 37.0562 32.4942C37.0562 28.6942 39.3996 24.1442 45.2229 24.1442C51.4096 24.1442 53.4596 28.7575 53.4596 32.1708C53.4596 32.9175 53.4262 33.4042 53.3929 33.7608H53.3962ZM48.1896 30.6108C48.0562 29.2108 47.0496 27.9108 45.2262 27.9108C43.5329 27.9108 42.5262 28.6608 42.1996 30.6108H48.1896ZM27.6829 40.6142H32.4029L38.2929 24.3675H32.8929L30.0263 33.8242L27.0996 24.3675H21.7229L27.6829 40.6142ZM5.68292 40.6142H11.0229V28.7542H16.1029V40.6142H21.4062V24.3675H11.0229V23.3608C11.0229 22.2542 11.8062 21.5742 13.0429 21.5742H16.1029V17.1875H12.1562C8.28292 17.1875 5.67958 19.5608 5.67958 23.0375V24.3708H2.65625V28.7575H5.68292V40.6175V40.6142Z" fill="white"/>
</svg>
