<svg width="64" height="64" viewBox="0 0 64 64" fill="none" xmlns="http://www.w3.org/2000/svg">
<path d="M49.496 35.0885C46.5573 35.0885 43.8027 33.8432 41.2987 31.8165L41.9067 28.9472L41.928 28.8352C42.48 25.7872 44.192 20.6752 49.4987 20.6752C51.4099 20.6766 53.2425 21.4364 54.5939 22.7879C55.9454 24.1394 56.7053 25.9719 56.7067 27.8832C56.7031 29.794 55.9421 31.6254 54.5905 32.9761C53.2388 34.3267 51.4068 35.0864 49.496 35.0885ZM49.496 13.3818C42.7253 13.3818 37.4693 17.7792 35.336 25.0245C32.0827 20.1338 29.608 14.2618 28.1707 9.3125H20.8747V28.2778C20.8726 30.0788 20.1564 31.8054 18.8832 33.0791C17.6099 34.3528 15.8836 35.0697 14.0827 35.0725C12.2824 35.069 10.5571 34.3517 9.28484 33.078C8.01263 31.8043 7.29741 30.0781 7.296 28.2778V9.3125H0V28.2778C0 36.0485 6.32 42.4192 14.0827 42.4192C21.8507 42.4192 28.1707 36.0485 28.1707 28.2778V25.1045C29.5813 28.0565 31.3227 31.0485 33.4347 33.6938L28.9733 54.6885H36.432L39.6667 39.4618C42.5013 41.2725 45.76 42.4192 49.496 42.4192C57.496 42.4192 64 35.8805 64 27.8858C64 19.8858 57.496 13.3818 49.496 13.3818Z" fill="white"/>
</svg>
