<svg width="40" height="40" viewBox="0 0 40 40" fill="none" xmlns="http://www.w3.org/2000/svg">
<path d="M5.49022 34.3323L16.0969 23.7256M29.4536 19.009L26.2786 28.5356C26.2277 28.688 26.1408 28.8259 26.0253 28.9376C25.9099 29.0492 25.7692 29.1315 25.6152 29.1773L6.15189 34.964C5.97654 35.016 5.79027 35.019 5.61334 34.9726C5.43641 34.9262 5.27561 34.8321 5.14843 34.7006C5.02126 34.5691 4.93258 34.4053 4.89205 34.2269C4.85151 34.0486 4.86068 33.8625 4.91856 33.689L11.2386 14.7323C11.2839 14.5962 11.3579 14.4714 11.4557 14.3664C11.5534 14.2615 11.6727 14.1788 11.8052 14.124L20.7836 10.4273C20.9661 10.3519 21.1669 10.3323 21.3605 10.3708C21.5542 10.4094 21.7321 10.5044 21.8719 10.644L29.2119 17.9856C29.3432 18.1169 29.4354 18.2822 29.4781 18.463C29.5208 18.6437 29.5123 18.8328 29.4536 19.009Z" stroke="#D0FF71" stroke-width="2.5" stroke-linecap="round" stroke-linejoin="round"/>
<path d="M30.672 5.30083L34.612 9.24083C34.9081 9.5241 35.1446 9.86365 35.3077 10.2396C35.4707 10.6155 35.5571 11.0202 35.5616 11.4299C35.5661 11.8397 35.4888 12.2462 35.3341 12.6256C35.1794 13.005 34.9504 13.3497 34.6607 13.6395C34.3709 13.9292 34.0262 14.1582 33.6468 14.3129C33.2674 14.4676 32.8608 14.5449 32.4511 14.5404C32.0414 14.5359 31.6367 14.4495 31.2608 14.2865C30.8848 14.1234 30.5453 13.8869 30.262 13.5908L26.3204 9.65083C25.7644 9.06974 25.4581 8.29407 25.467 7.48992C25.4759 6.68576 25.7993 5.91706 26.3679 5.3484C26.9366 4.77974 27.7053 4.45635 28.5094 4.44745C29.3136 4.43856 30.0909 4.74489 30.672 5.30083Z" fill="#D0FF71" stroke="#D0FF71" stroke-width="2.5" stroke-linecap="round" stroke-linejoin="round"/>
<path d="M19.6342 20.191C19.4035 19.9522 19.1277 19.7617 18.8227 19.6307C18.5177 19.4997 18.1896 19.4307 17.8577 19.4278C17.5257 19.4249 17.1965 19.4882 16.8893 19.6139C16.582 19.7396 16.3029 19.9252 16.0682 20.16C15.8334 20.3947 15.6478 20.6738 15.5221 20.9811C15.3964 21.2883 15.3331 21.6175 15.336 21.9495C15.3389 22.2814 15.4079 22.6095 15.5389 22.9145C15.6699 23.2195 15.8604 23.4953 16.0992 23.726C16.5707 24.1814 17.2022 24.4333 17.8577 24.4276C18.5132 24.4219 19.1402 24.159 19.6037 23.6955C20.0672 23.232 20.3301 22.6049 20.3358 21.9495C20.3415 21.294 20.0896 20.6625 19.6342 20.191Z" stroke="#D0FF71" stroke-width="2.5" stroke-linecap="round" stroke-linejoin="round"/>
</svg>
