<svg width="171" height="28" viewBox="0 0 171 28" fill="none" xmlns="http://www.w3.org/2000/svg">
<g clip-path="url(#clip0_411_7782)">
<g filter="url(#filter0_i_411_7782)">
<path d="M20.561 7.64536H21.5172L24.2428 4.89646L24.3764 3.72893C19.3037 -0.787405 11.5621 -0.299512 7.08421 4.81672C5.84006 6.23674 4.93846 7.92822 4.44531 9.7583C4.74835 9.633 5.08528 9.61211 5.40149 9.70135L10.8525 8.7939C10.8525 8.7939 11.1292 8.3307 11.2741 8.35917C13.6984 5.67291 17.7791 5.35967 20.5799 7.64536H20.561Z" fill="#D2D2D2"/>
<path d="M28.1204 9.75871C27.4935 7.43125 26.208 5.33919 24.4198 3.74072L20.5951 7.59831C22.2101 8.9291 23.1305 10.9357 23.0909 13.0392V13.7246C24.9714 13.7246 26.496 15.2623 26.496 17.1588C26.496 19.0552 24.9714 20.593 23.0909 20.593H16.2811L15.6016 21.2877V25.4073L16.2811 26.0927H23.0909C27.981 26.1306 31.9771 22.163 32.0147 17.2309C32.0373 14.2352 30.5748 11.4331 28.1204 9.75871Z" fill="#D2D2D2"/>
<path d="M9.46277 26.0485H16.2727V20.5506H9.46277C8.97715 20.5506 8.49906 20.4443 8.05672 20.2412L7.10055 20.5412L4.35624 23.29L4.11719 24.2545C5.65499 25.4277 7.53347 26.058 9.46277 26.0485Z" fill="#D2D2D2"/>
<path d="M9.46356 8.21516C4.57161 8.24363 0.632073 12.2664 0.660307 17.2004C0.677247 19.955 1.95153 22.5482 4.11799 24.2264L8.06694 20.2435C6.3541 19.4633 5.59179 17.4281 6.36539 15.7006C7.13899 13.973 9.15676 13.2042 10.8696 13.9845C11.6244 14.328 12.2286 14.9393 12.5711 15.7006L16.5201 11.7177C14.8411 9.50039 12.2286 8.20377 9.46356 8.21516Z" fill="#D2D2D2"/>
</g>
<g filter="url(#filter1_i_411_7782)">
<path d="M50.1477 22.2099C47.778 22.2403 45.5004 21.2967 43.8365 19.5958C42.118 17.9668 41.158 15.685 41.1882 13.3062C41.1599 10.9276 42.12 8.64757 43.8365 7.01683C45.4929 5.29876 47.7723 4.33626 50.1477 4.35525C52.4101 4.32487 54.5917 5.21144 56.201 6.8156L54.4994 8.56215C53.3343 7.42499 51.7682 6.80231 50.1477 6.82509C48.448 6.8042 46.8161 7.50473 45.6529 8.75388C44.4445 9.96318 43.7782 11.6186 43.8064 13.3347C43.7913 15.0319 44.4577 16.6627 45.6529 17.8587C48.1149 20.3342 52.0845 20.3817 54.6048 17.9651C55.3558 17.1373 55.8151 16.0818 55.9149 14.9655H50.1759V12.4976H58.2959C58.375 12.9949 58.4069 13.498 58.3919 14.0031C58.4936 16.1084 57.7368 18.1644 56.297 19.6944C54.6951 21.3746 52.4591 22.2897 50.1477 22.2099ZM69.0266 20.5696C66.7622 22.7585 63.1897 22.7585 60.9254 20.5696C59.828 19.497 59.2295 18.0106 59.2708 16.471C59.2295 14.9314 59.83 13.4448 60.9254 12.3723C63.1916 10.1891 66.7603 10.1891 69.0266 12.3723C70.122 13.4448 70.7225 14.9314 70.6811 16.471C70.7206 18.0124 70.1164 19.4989 69.0171 20.5696H69.0266ZM62.7136 18.9598C63.8824 20.2203 65.8437 20.2849 67.0935 19.104C67.1424 19.0565 67.1914 19.0091 67.2366 18.9598C67.8746 18.2934 68.2191 17.3974 68.1928 16.471C68.2209 15.5427 67.8765 14.6408 67.2366 13.9726C66.0339 12.7083 64.0424 12.6646 62.7869 13.8777C62.7549 13.9081 62.723 13.9403 62.6928 13.9726C62.0529 14.6408 61.7084 15.5427 61.7366 16.471C61.7122 17.3974 62.0604 18.2953 62.7022 18.9598H62.7136ZM81.4776 20.5696C79.2133 22.7585 75.6408 22.7585 73.3765 20.5696C72.2791 19.497 71.6806 18.0106 71.7219 16.471C71.6806 14.9314 72.2809 13.4448 73.3765 12.3723C75.6408 10.1834 79.2133 10.1834 81.4776 12.3723C82.5731 13.4448 83.1736 14.9314 83.1321 16.471C83.1753 18.0106 82.575 19.497 81.4776 20.5696ZM75.1664 18.9598C76.3353 20.2203 78.2966 20.2849 79.5464 19.104C79.5954 19.0565 79.6443 19.0091 79.6895 18.9598C80.3276 18.2934 80.672 17.3974 80.6457 16.471C80.6739 15.5427 80.3294 14.6408 79.6895 13.9726C78.4867 12.7083 76.4953 12.6646 75.2418 13.8777C75.2097 13.9081 75.1778 13.9403 75.1476 13.9726C74.5077 14.6408 74.1632 15.5427 74.1914 16.471C74.167 17.3974 74.5152 18.2953 75.157 18.9598H75.1664ZM89.6634 27.3602C88.5172 27.3963 87.3935 27.0357 86.4787 26.3371C85.667 25.7213 85.0275 24.9036 84.6228 23.9641L86.8025 23.0471C87.0396 23.609 87.4105 24.1025 87.8829 24.4842C88.3873 24.8942 89.0216 25.1107 89.6711 25.0917C90.5029 25.1429 91.3161 24.8258 91.8996 24.2241C92.4755 23.5236 92.7597 22.6237 92.6939 21.7163V20.8866H92.6073C91.8676 21.7713 90.759 22.2535 89.6146 22.189C88.1633 22.1928 86.7761 21.5853 85.7899 20.5108C84.7207 19.4457 84.1298 17.9859 84.1542 16.4691C84.1278 14.9446 84.7189 13.4753 85.7899 12.3988C86.7742 11.3205 88.1615 10.7074 89.6146 10.7111C90.2226 10.7093 90.8248 10.8459 91.3745 11.106C91.8506 11.3148 92.2742 11.6281 92.6186 12.023H92.7051V11.106H95.0769V21.3784C95.203 23.0205 94.6533 24.6437 93.556 25.8644C92.5113 26.8724 91.109 27.4115 89.6634 27.3602ZM89.8367 19.9527C90.6629 19.9716 91.4554 19.6167 91.9975 18.9882C92.5866 18.3067 92.8991 17.4239 92.867 16.5183C92.9028 15.5977 92.5922 14.6997 91.9975 14.0011C91.4554 13.3709 90.6629 13.0177 89.8367 13.0367C88.9878 13.0196 88.1727 13.3709 87.5987 14.0011C86.9663 14.6751 86.6218 15.573 86.6425 16.4994C86.6237 17.4183 86.9663 18.3067 87.5987 18.9692C88.169 19.6052 88.9841 19.964 89.8367 19.9527ZM99.2949 5.00261V21.8624H96.7991V5.00261H99.2949ZM106.143 22.2099C104.631 22.2497 103.172 21.6518 102.116 20.5601C101.045 19.4781 100.46 17.9992 100.5 16.471C100.443 14.9389 101.006 13.4487 102.058 12.3419C103.052 11.2864 104.441 10.7017 105.883 10.7301C106.54 10.7225 107.189 10.8516 107.795 11.106C108.341 11.3281 108.838 11.6566 109.258 12.0704C109.619 12.4216 109.939 12.8127 110.214 13.2379C110.436 13.5968 110.624 13.9745 110.778 14.3657L111.036 15.0225L103.387 18.1966C103.861 19.2939 104.955 19.9849 106.141 19.9337C107.287 19.9374 108.35 19.3318 108.943 18.3428L110.856 19.6451C110.368 20.3501 109.743 20.9476 109.019 21.4012C108.16 21.9479 107.159 22.2288 106.143 22.2099ZM102.948 16.2963L108.036 14.1643C107.88 13.7885 107.599 13.4791 107.242 13.2873C106.843 13.0595 106.391 12.9436 105.932 12.9494C105.154 12.9702 104.415 13.2987 103.876 13.8664C103.223 14.4966 102.882 15.3869 102.948 16.2963Z" fill="#D2D2D2"/>
</g>
<g filter="url(#filter2_i_411_7782)">
<path d="M124.114 22.2101C119.762 22.286 116.174 18.7891 116.099 14.4C116.097 14.2937 116.097 14.1855 116.101 14.0791C115.999 9.69004 119.446 6.05078 123.795 5.94826C123.901 5.94636 124.008 5.94636 124.114 5.94636C126.289 5.87802 128.379 6.81584 129.785 8.49214L128.407 9.84191C127.373 8.5301 125.781 7.79542 124.123 7.86377C122.532 7.8277 120.995 8.44847 119.867 9.57992C118.695 10.7702 118.068 12.3991 118.136 14.0754C118.066 15.7517 118.695 17.3806 119.867 18.5708C120.995 19.7042 122.532 20.3231 124.123 20.287C125.975 20.3078 127.735 19.4764 128.904 18.0298L130.281 19.4195C129.561 20.2889 128.655 20.9837 127.633 21.4546C126.53 21.9709 125.328 22.229 124.114 22.2101Z" fill="#D2D2D2"/>
<path d="M133.984 21.8624H132.004V6.28394H133.984V21.8624Z" fill="#D2D2D2"/>
<path d="M137.213 12.4865C139.372 10.3242 142.858 10.3242 145.016 12.4865C146.041 13.5781 146.592 15.0361 146.547 16.5377C146.592 18.0393 146.041 19.4974 145.016 20.5889C142.858 22.7512 139.372 22.7512 137.213 20.5889C136.189 19.4974 135.638 18.0393 135.682 16.5377C135.638 15.0361 136.187 13.5781 137.213 12.4865ZM138.685 19.336C139.952 20.6857 142.064 20.7447 143.404 19.467C143.448 19.4252 143.492 19.3797 143.534 19.336C144.232 18.5804 144.6 17.5724 144.557 16.5396C144.603 15.5069 144.234 14.4987 143.534 13.7433C142.267 12.3934 140.155 12.3346 138.814 13.6123C138.77 13.654 138.727 13.6996 138.685 13.7433C137.987 14.4987 137.618 15.5069 137.661 16.5396C137.622 17.5705 137.993 18.5747 138.695 19.3265L138.685 19.336Z" fill="#D2D2D2"/>
<path d="M157.52 21.8628H155.608V20.3878H155.551C155.211 20.9478 154.728 21.4072 154.154 21.7185C153.56 22.066 152.882 22.2501 152.193 22.2482C151.06 22.326 149.956 21.878 149.191 21.0332C148.467 20.1086 148.103 18.9488 148.168 17.7736V11.2146H150.147V17.4073C150.147 19.3949 151.017 20.3878 152.758 20.3878C153.542 20.4124 154.291 20.0537 154.767 19.4234C155.28 18.7685 155.553 17.9539 155.542 17.1186V11.2146H157.522V21.8628H157.52Z" fill="#D2D2D2"/>
<path d="M164.239 22.2097C162.88 22.2135 161.587 21.6193 160.701 20.579C159.708 19.4741 159.177 18.0275 159.217 16.5373C159.177 15.047 159.708 13.6005 160.701 12.4956C161.587 11.4571 162.88 10.861 164.239 10.8648C164.991 10.8534 165.736 11.0319 166.4 11.385C166.986 11.6811 167.481 12.1311 167.835 12.6873H167.921L167.835 11.2122V6.28394H169.814V21.8624H167.902V20.3873H167.815C167.462 20.9435 166.967 21.3934 166.381 21.6895C165.722 22.0389 164.986 22.2192 164.239 22.2097ZM164.565 20.3873C165.47 20.4005 166.338 20.0209 166.946 19.345C167.618 18.5724 167.962 17.5644 167.902 16.5373C167.962 15.5121 167.618 14.5022 166.946 13.7295C165.745 12.3968 163.701 12.3 162.38 13.5132C162.305 13.5815 162.232 13.6554 162.165 13.7295C161.491 14.4965 161.146 15.5027 161.209 16.526C161.146 17.5491 161.491 18.5553 162.165 19.3223C162.774 20.0132 163.65 20.4005 164.565 20.3873Z" fill="#D2D2D2"/>
</g>
</g>
<defs>
<filter id="filter0_i_411_7782" x="0.660156" y="0.636475" width="31.3555" height="26.5702" filterUnits="userSpaceOnUse" color-interpolation-filters="sRGB">
<feFlood flood-opacity="0" result="BackgroundImageFix"/>
<feBlend mode="normal" in="SourceGraphic" in2="BackgroundImageFix" result="shape"/>
<feColorMatrix in="SourceAlpha" type="matrix" values="0 0 0 0 0 0 0 0 0 0 0 0 0 0 0 0 0 0 127 0" result="hardAlpha"/>
<feOffset dy="1.11364"/>
<feGaussianBlur stdDeviation="0.556818"/>
<feComposite in2="hardAlpha" operator="arithmetic" k2="-1" k3="1"/>
<feColorMatrix type="matrix" values="0 0 0 0 0.109804 0 0 0 0 0.109804 0 0 0 0 0.109804 0 0 0 0.12 0"/>
<feBlend mode="normal" in2="shape" result="effect1_innerShadow_411_7782"/>
</filter>
<filter id="filter1_i_411_7782" x="41.1875" y="4.35449" width="69.8477" height="24.1227" filterUnits="userSpaceOnUse" color-interpolation-filters="sRGB">
<feFlood flood-opacity="0" result="BackgroundImageFix"/>
<feBlend mode="normal" in="SourceGraphic" in2="BackgroundImageFix" result="shape"/>
<feColorMatrix in="SourceAlpha" type="matrix" values="0 0 0 0 0 0 0 0 0 0 0 0 0 0 0 0 0 0 127 0" result="hardAlpha"/>
<feOffset dy="1.11364"/>
<feGaussianBlur stdDeviation="0.556818"/>
<feComposite in2="hardAlpha" operator="arithmetic" k2="-1" k3="1"/>
<feColorMatrix type="matrix" values="0 0 0 0 0.109804 0 0 0 0 0.109804 0 0 0 0 0.109804 0 0 0 0.12 0"/>
<feBlend mode="normal" in2="shape" result="effect1_innerShadow_411_7782"/>
</filter>
<filter id="filter2_i_411_7782" x="116.098" y="5.94287" width="53.7148" height="17.4276" filterUnits="userSpaceOnUse" color-interpolation-filters="sRGB">
<feFlood flood-opacity="0" result="BackgroundImageFix"/>
<feBlend mode="normal" in="SourceGraphic" in2="BackgroundImageFix" result="shape"/>
<feColorMatrix in="SourceAlpha" type="matrix" values="0 0 0 0 0 0 0 0 0 0 0 0 0 0 0 0 0 0 127 0" result="hardAlpha"/>
<feOffset dy="1.11364"/>
<feGaussianBlur stdDeviation="0.556818"/>
<feComposite in2="hardAlpha" operator="arithmetic" k2="-1" k3="1"/>
<feColorMatrix type="matrix" values="0 0 0 0 0.109804 0 0 0 0 0.109804 0 0 0 0 0.109804 0 0 0 0.12 0"/>
<feBlend mode="normal" in2="shape" result="effect1_innerShadow_411_7782"/>
</filter>
<clipPath id="clip0_411_7782">
<rect width="170.545" height="28" fill="white" transform="translate(-0.0078125)"/>
</clipPath>
</defs>
</svg>
