<svg width="116" height="28" viewBox="0 0 116 28" fill="none" xmlns="http://www.w3.org/2000/svg">
<path d="M18.0877 1.62679C18.1676 1.65168 18.2474 1.67658 18.3297 1.70224C21.1148 2.60011 23.6221 4.4736 25.1748 6.97118C25.2338 7.05985 25.2928 7.14851 25.3536 7.23986C27.0918 9.94952 27.5569 13.4273 26.9303 16.5535C26.191 19.7841 24.2208 22.68 21.457 24.5148C18.5984 26.3077 15.2243 26.9764 11.8865 26.3519C8.41381 25.4927 5.44447 23.4663 3.57258 20.398C1.92455 17.6024 1.29638 14.1997 2.06175 11.0231C2.98301 7.51863 5.0107 4.704 8.11958 2.8045C9.44961 2.0312 10.899 1.59876 12.3948 1.27824C12.4854 1.2579 12.5761 1.23756 12.6696 1.2166C14.4341 0.902159 16.3859 1.09259 18.0877 1.62679ZM11.1167 4.06662C10.9963 4.10736 10.8759 4.14809 10.7519 4.19006C7.99832 5.22804 6.08696 7.31654 4.8751 9.93702C4.72042 10.3575 4.65635 10.7107 4.61051 11.1538C4.8301 10.8244 4.95004 10.5413 5.08976 10.1735C6.08733 7.75538 8.09546 5.86085 10.4717 4.8169C13.0771 3.74042 15.867 3.81989 18.4898 4.81455C21.0758 5.95629 22.9472 7.95196 24.013 10.5728C24.2009 11.1066 24.347 11.649 24.4777 12.1994C24.5161 12.1994 24.5544 12.1994 24.5939 12.1994C24.4715 9.83249 23.0992 7.72966 21.4279 6.13612C20.3734 5.20955 19.1807 4.52471 17.8553 4.06662C17.7252 4.02094 17.595 3.97526 17.4609 3.9282C15.4317 3.31837 13.1148 3.36683 11.1167 4.06662ZM9.49018 8.01683C7.87506 9.5268 6.64654 11.3321 6.54658 13.6127C6.50762 15.9565 6.9597 17.9748 8.64286 19.72C8.73077 19.807 8.81869 19.894 8.90926 19.9836C8.98639 20.0647 9.06352 20.1457 9.14299 20.2292C10.6499 21.7073 12.7713 22.3073 14.8346 22.3073C16.9249 22.1547 18.703 21.3435 20.179 19.8674C20.263 19.7834 20.347 19.6994 20.4336 19.6128C21.0084 19.0031 21.4979 18.3289 21.8055 17.5438C21.7672 17.4288 21.7289 17.3138 21.6894 17.1953C21.6357 17.2754 21.5821 17.3555 21.5269 17.4381C20.2375 19.2957 18.5766 20.4262 16.3477 20.865C14.0805 21.1755 11.995 20.514 10.1945 19.1486C8.56847 17.7255 7.84874 15.7655 7.59812 13.6644C7.50842 11.6207 8.38436 9.63847 9.72254 8.13301C9.64586 8.09467 9.56918 8.05633 9.49018 8.01683ZM11.1167 9.75957C11.0609 9.81498 11.005 9.87039 10.9475 9.92749C9.91771 11.0068 9.68336 12.3869 9.6876 13.8228C9.72029 14.5165 9.94346 15.1556 10.1873 15.8011C10.2709 15.5043 10.3017 15.3087 10.2817 14.995C10.2728 13.9657 10.6962 12.9564 11.3577 12.1844C12.2204 11.3463 13.1782 11.1052 14.3565 11.1115C15.3938 11.1383 16.19 11.468 16.9463 12.1767C17.7345 13.1252 18.0741 14.2371 17.9715 15.4525C17.7979 16.453 17.3381 17.3656 16.5269 17.9958C15.9839 18.3364 15.4602 18.5696 14.8346 18.7056C14.8346 18.744 14.8346 18.7823 14.8346 18.8218C16.5641 18.7668 17.9109 18.3314 19.1415 17.0636C20.1653 15.8271 20.5911 14.369 20.5094 12.7749C20.4613 12.455 20.3896 12.1602 20.2952 11.8509C20.2619 11.739 20.2287 11.6271 20.1944 11.5118C19.6779 10.0547 18.6538 9.06003 17.2803 8.39669C15.1276 7.50088 12.6795 8.02785 11.1167 9.75957ZM4.49433 11.1538C4.61051 11.5023 4.61051 11.5023 4.61051 11.5023L4.49433 11.1538ZM4.37814 11.6185C4.49433 11.967 4.49433 11.967 4.49433 11.967L4.37814 11.6185ZM4.26196 12.1994C4.37814 12.6641 4.37814 12.6641 4.37814 12.6641L4.26196 12.1994ZM24.5939 12.1994C24.5939 12.4678 24.5939 12.7362 24.5939 13.0127C24.6323 13.0127 24.6706 13.0127 24.7101 13.0127C24.7101 12.7443 24.7101 12.4759 24.7101 12.1994C24.6718 12.1994 24.6334 12.1994 24.5939 12.1994ZM24.7101 13.245C24.7101 13.5901 24.7101 13.9352 24.7101 14.2907C24.7484 14.2907 24.7868 14.2907 24.8263 14.2907C24.8263 13.9456 24.8263 13.6006 24.8263 13.245C24.7879 13.245 24.7496 13.245 24.7101 13.245ZM10.3035 15.8011C10.4196 16.0334 10.4196 16.0334 10.4196 16.0334L10.3035 15.8011ZM22.0379 16.382C22.1541 16.6143 22.1541 16.6143 22.1541 16.6143L22.0379 16.382ZM21.9217 16.7305C22.0379 16.9629 22.0379 16.9629 22.0379 16.9629L21.9217 16.7305ZM21.8055 16.9629C21.9217 17.1953 21.9217 17.1953 21.9217 17.1953L21.8055 16.9629Z" fill="#D2D2D2"/>
<path d="M18.0877 1.62679C18.1676 1.65168 18.2474 1.67658 18.3297 1.70224C21.1148 2.60011 23.6221 4.4736 25.1748 6.97118C25.2338 7.05985 25.2928 7.14851 25.3536 7.23986C27.0918 9.94952 27.5569 13.4273 26.9303 16.5535C26.191 19.7841 24.2208 22.68 21.457 24.5148C18.5984 26.3077 15.2243 26.9764 11.8865 26.3519C8.41381 25.4927 5.44447 23.4663 3.57258 20.398C1.92455 17.6024 1.29638 14.1997 2.06175 11.0231C2.98301 7.51863 5.0107 4.704 8.11958 2.8045C9.44961 2.0312 10.899 1.59876 12.3948 1.27824C12.4854 1.2579 12.5761 1.23756 12.6696 1.2166C14.4341 0.902159 16.3859 1.09259 18.0877 1.62679ZM11.1167 4.06662C10.9963 4.10736 10.8759 4.14809 10.7519 4.19006C8.2395 5.13713 6.24601 7.05074 5.08976 9.45459C3.85591 12.1891 3.84843 15.334 4.89733 18.1265C5.92375 20.705 7.80584 22.5934 10.3048 23.785C11.6448 24.3595 12.8274 24.5358 14.2755 24.5365C14.4112 24.538 14.547 24.5394 14.6869 24.5408C17.2828 24.5452 19.5216 23.5565 21.457 21.8426C21.531 21.7783 21.605 21.7141 21.6812 21.6479C23.4163 20.0367 24.3163 17.7311 24.6738 15.4453C24.6891 15.3477 24.7044 15.2502 24.7202 15.1497C25.1052 12.5022 24.364 9.83996 22.8362 7.66465C21.5255 5.99522 19.8652 4.7613 17.8553 4.06662C17.7252 4.02094 17.595 3.97526 17.4609 3.9282C15.4317 3.31837 13.1148 3.36683 11.1167 4.06662Z" fill="#D2D2D2"/>
<path d="M20.8521 6.08677C22.9732 7.84174 24.3909 10.2636 24.7117 13.0126C24.829 15.1688 24.5453 17.1278 23.5499 19.0541C23.4889 19.1769 23.428 19.2997 23.3652 19.4262C22.0431 21.8958 19.7019 23.4493 17.0945 24.2927C16.1719 24.537 15.2691 24.5359 14.3206 24.5364C14.1825 24.5378 14.0443 24.5393 13.902 24.5407C13.1603 24.542 12.5238 24.5025 11.8154 24.2823C11.6799 24.245 11.5444 24.2077 11.4047 24.1693C8.88361 23.3903 6.78566 21.7402 5.51575 19.4031C4.13031 16.7533 3.75974 13.9022 4.63803 11.0157C5.50466 8.40146 7.43032 6.29081 9.84038 4.99597C13.4117 3.28185 17.6886 3.61849 20.8521 6.08677ZM9.14328 8.36526C9.06136 8.43775 8.97944 8.51024 8.89503 8.58492C7.52188 9.87177 6.63088 11.727 6.54824 13.6125C6.50927 15.9564 6.96136 17.9747 8.64451 19.7198C8.73243 19.8069 8.82034 19.8939 8.91092 19.9835C8.98805 20.0645 9.06518 20.1456 9.14464 20.229C10.6515 21.7072 12.7729 22.3072 14.8362 22.3072C16.9302 22.1544 18.6995 21.341 20.1806 19.8673C20.3026 19.7514 20.3026 19.7514 20.427 19.6332C22.0339 17.9919 22.6692 15.5419 22.6785 13.303C22.6431 11.2409 21.9597 9.53323 20.5291 8.01672C19.0602 6.60675 17.1755 5.85243 15.1484 5.8746C14.9731 5.8763 14.9731 5.8763 14.7942 5.87803C12.6162 5.92969 10.7459 6.92141 9.14328 8.36526Z" fill="#D2D2D2"/>
<path d="M43.0696 8.59788C42.8825 9.07118 42.5423 9.38386 42.1837 9.73066C42.1238 9.78952 42.0638 9.84837 42.0021 9.90902C41.855 10.0534 41.7072 10.1971 41.5592 10.3406C41.4834 10.293 41.4076 10.2454 41.3295 10.1963C40.1767 9.48555 39.0803 9.14645 37.7106 9.36033C36.634 9.62473 35.9128 10.1802 35.3243 11.1112C34.6902 12.2349 34.7467 13.5 35.0439 14.7238C35.3563 15.6723 35.9364 16.3655 36.8002 16.8686C37.9475 17.4212 39.4357 17.3411 40.6297 16.963C40.8938 16.8247 40.8938 16.8247 41.0944 16.6145C41.1477 16.3565 41.1477 16.3565 41.1144 16.0721C41.1077 15.9684 41.1009 15.8647 41.094 15.7579C41.0846 15.6499 41.0751 15.542 41.0654 15.4309C41.0578 15.3216 41.0501 15.2124 41.0423 15.0998C41.0231 14.8299 41.0017 14.5604 40.9783 14.2908C40.7538 14.2928 40.7538 14.2928 40.5249 14.2949C40.3299 14.296 40.1349 14.2971 39.9399 14.2981C39.7917 14.2995 39.7917 14.2995 39.6406 14.301C39.5466 14.3014 39.4526 14.3018 39.3558 14.3022C39.2688 14.3028 39.1818 14.3034 39.0921 14.304C38.887 14.2908 38.887 14.2908 38.7708 14.1746C38.7708 13.5229 38.7708 12.8711 38.7708 12.1995C40.2661 12.1995 41.7613 12.1995 43.3019 12.1995C43.3019 14.1932 43.3019 16.1869 43.3019 18.241C41.0436 19.1444 38.5707 19.8517 36.1785 18.9608C34.6529 18.2823 33.6036 17.3638 32.9281 15.8039C32.287 14.0927 32.2741 12.2155 33.017 10.533C33.784 9.00614 34.8502 8.08217 36.4617 7.51593C38.6727 6.79013 41.2123 7.24855 43.0696 8.59788Z" fill="#D2D2D2"/>
<path d="M52.3614 8.36575C52.1743 8.83905 51.8341 9.15173 51.4755 9.49853C51.4156 9.55739 51.3557 9.61625 51.2939 9.67689C51.1468 9.82129 50.999 9.96496 50.851 10.1085C50.7456 10.0174 50.6401 9.92637 50.5315 9.83256C49.8985 9.3819 49.1311 9.25649 48.3635 9.31745C47.8686 9.42014 47.5591 9.59575 47.2493 9.99231C47.076 10.3389 47.0701 10.6109 47.1168 10.9935C47.4179 11.6225 48.2513 11.8496 48.8759 12.0836C49.2299 12.2046 49.5855 12.318 49.9424 12.4303C50.8158 12.7448 51.6387 13.2504 52.129 14.0587C52.5225 15.0195 52.5281 16.1817 52.158 17.1521C51.6805 18.1534 50.9118 18.775 49.8707 19.1562C48.3358 19.5598 46.7037 19.3766 45.3396 18.5898C44.6712 18.1779 44.6712 18.1779 44.4609 17.8927C44.4768 17.4562 44.7229 17.2454 45.0273 16.956C45.1491 16.839 45.1491 16.839 45.2733 16.7196C45.3888 16.6101 45.3888 16.6101 45.5066 16.4985C45.6232 16.3827 45.7395 16.2667 45.8551 16.15C46.2037 16.2662 46.2037 16.2662 46.4651 16.5421C47.0141 17.0661 47.4882 17.2157 48.2296 17.2465C48.8237 17.2293 49.3366 17.1115 49.8053 16.7309C50.1171 16.2329 50.0703 15.7545 50.0087 15.1842C49.8838 14.9032 49.7389 14.8805 49.4568 14.7558C49.167 14.6445 48.8769 14.5358 48.5854 14.429C48.3353 14.3356 48.0853 14.2418 47.8353 14.1478C47.6218 14.0677 47.4081 13.988 47.1944 13.9085C46.111 13.4853 45.4422 13.0204 44.9257 11.9674C44.6464 11.1297 44.6725 10.0414 45.0419 9.23712C45.6433 8.22008 46.5441 7.67025 47.6587 7.35278C49.3428 6.97744 51.0129 7.28695 52.3614 8.36575Z" fill="#D2D2D2"/>
<path d="M15.969 11.3422C17.0377 11.9988 17.7423 12.8937 18.0462 14.1279C18.223 15.3079 17.991 16.29 17.3255 17.2821C16.6826 18.1145 15.8925 18.6161 14.8517 18.7929C13.7175 18.923 12.733 18.7134 11.8141 18.0082C11.7183 17.9435 11.6224 17.8788 11.5237 17.8122C10.6826 17.0342 10.2848 16.0721 10.1367 14.9512C10.2885 13.6723 10.7092 12.5781 11.7261 11.7561C12.9368 10.9083 14.6051 10.682 15.969 11.3422Z" fill="#D2D2D2"/>
<path d="M52.7109 7.55176C53.516 7.55176 54.3212 7.55176 55.1507 7.55176C55.33 8.03819 55.5092 8.52469 55.688 9.0113C55.7157 9.08656 55.7434 9.16182 55.7719 9.23937C56.143 10.2491 56.5096 11.2604 56.8717 12.2735C56.9086 12.3767 56.9454 12.4798 56.9835 12.5861C57.1666 13.0984 57.3492 13.6108 57.5314 14.1234C57.5986 14.3117 57.6658 14.5 57.733 14.6884C57.764 14.7758 57.7949 14.8633 57.8268 14.9534C57.946 15.3495 57.946 15.3495 58.1715 15.6845C59.1899 12.9778 60.202 10.269 61.1922 7.55176C61.959 7.55176 62.7258 7.55176 63.5158 7.55176C63.4279 8.07937 63.3504 8.41706 63.1487 8.89058C63.0693 9.07936 63.0693 9.07936 62.9882 9.27195C62.9299 9.40879 62.8716 9.54563 62.8115 9.68661C62.6841 9.98911 62.5573 10.2919 62.4307 10.5947C62.397 10.6754 62.3632 10.756 62.3284 10.8391C61.8939 11.8805 61.4786 12.9297 61.0615 13.9781C60.3849 15.6768 59.6968 17.3696 58.9847 19.0538C58.3713 19.0538 57.7578 19.0538 57.1258 19.0538C56.1953 16.8143 55.315 14.5565 54.4423 12.2939C54.3513 12.0579 54.2602 11.8219 54.1691 11.5859C54.125 11.4716 54.081 11.3573 54.0356 11.2396C53.8165 10.6728 53.5944 10.1076 53.3659 9.5445C53.3225 9.43731 53.279 9.33012 53.2343 9.21968C53.1522 9.01783 53.0695 8.8162 52.9863 8.61482C52.9318 8.48094 52.9318 8.48094 52.8762 8.34436C52.8441 8.26663 52.812 8.1889 52.779 8.10881C52.7109 7.90031 52.7109 7.90031 52.7109 7.55176Z" fill="#D2D2D2"/>
<path d="M65.6094 9.29443C66.0312 9.29443 66.4529 9.29443 66.8874 9.29443C67.2517 10.2577 67.6153 11.2211 67.9781 12.1849C68.1466 12.6323 68.3153 13.0797 68.4845 13.527C68.6477 13.9584 68.8103 14.3901 68.9726 14.8219C69.0347 14.9867 69.0969 15.1515 69.1594 15.3162C69.2467 15.5466 69.3334 15.7773 69.4198 16.008C69.4694 16.1393 69.5189 16.2706 69.5699 16.4059C69.6758 16.7301 69.6758 16.7301 69.6758 17.0787C69.7525 17.0787 69.8292 17.0787 69.9082 17.0787C69.9226 16.996 69.937 16.9133 69.9518 16.8282C70.0264 16.4885 70.1316 16.1828 70.256 15.8581C70.3037 15.7329 70.3514 15.6076 70.4006 15.4785C70.4522 15.3443 70.5039 15.2101 70.5572 15.0718C70.6103 14.9327 70.6635 14.7936 70.7183 14.6503C70.8307 14.3563 70.9434 14.0623 71.0564 13.7685C71.2004 13.3938 71.3439 13.0189 71.4872 12.6439C71.6248 12.284 71.7627 11.9243 71.9005 11.5645C71.9517 11.4308 72.0029 11.297 72.0557 11.1592C72.2968 10.5322 72.5419 9.90921 72.8127 9.29443C73.1961 9.29443 73.5795 9.29443 73.9746 9.29443C73.8892 9.84465 73.6962 10.3396 73.4976 10.8565C73.4608 10.9531 73.4241 11.0497 73.3863 11.1492C73.2658 11.4655 73.1446 11.7814 73.0233 12.0973C72.9822 12.2049 72.941 12.3125 72.8986 12.4233C72.3025 13.9819 71.696 15.5362 71.0773 17.0859C71.0421 17.1741 71.007 17.2623 70.9708 17.3531C70.8725 17.5996 70.7737 17.8459 70.6747 18.0921C70.619 18.2308 70.5633 18.3695 70.5059 18.5124C70.3729 18.8214 70.3729 18.8214 70.2567 18.9376C70.0802 18.9459 69.9033 18.9473 69.7266 18.9448C69.5826 18.9433 69.5826 18.9433 69.4357 18.9417C69.3245 18.9396 69.3245 18.9396 69.2111 18.9376C69.1865 18.8728 69.162 18.808 69.1366 18.7413C68.8228 17.9135 68.5087 17.0858 68.1945 16.2581C68.1445 16.1263 68.0944 15.9945 68.0429 15.8587C67.3002 13.9017 67.3002 13.9017 66.5466 11.9489C66.4968 11.821 66.4968 11.821 66.446 11.6904C66.2957 11.3045 66.1449 10.9188 65.9932 10.5334C65.9416 10.4013 65.89 10.2692 65.8368 10.1331C65.7924 10.0204 65.7481 9.90773 65.7024 9.79161C65.6094 9.5268 65.6094 9.5268 65.6094 9.29443Z" fill="#D2D2D2"/>
<path d="M107.289 12.9108C107.85 13.3386 108.145 13.9827 108.364 14.639C108.364 15.0991 108.364 15.5592 108.364 16.0332C106.677 16.0332 104.99 16.0332 103.252 16.0332C103.724 17.2554 103.724 17.2554 104.69 17.9284C105.546 18.1527 106.075 17.9837 106.842 17.5885C107.117 17.4295 107.117 17.4295 107.318 17.0788C107.657 17.2036 107.874 17.2854 108.132 17.5435C108.108 17.8451 108.046 17.9773 107.834 18.1939C106.843 18.921 106.007 19.1983 104.762 19.0539C103.815 18.8065 103.09 18.3611 102.584 17.5072C102.114 16.5863 101.986 15.7785 102.206 14.7552C102.575 13.7535 103.138 13.0856 104.065 12.5477C105.209 12.1242 106.265 12.2688 107.289 12.9108ZM103.847 13.8693C103.385 14.4222 103.385 14.4222 103.252 15.1037C104.594 15.1037 105.936 15.1037 107.318 15.1037C107.197 14.3724 107.055 13.9656 106.476 13.4989C105.526 13.0887 104.643 13.212 103.847 13.8693Z" fill="#D2D2D2"/>
<path d="M78.4764 12.9113C79.0372 13.3391 79.3323 13.9833 79.5511 14.6395C79.5511 15.0996 79.5511 15.5597 79.5511 16.0337C77.8641 16.0337 76.1771 16.0337 74.4391 16.0337C74.9105 17.256 74.9105 17.256 75.8768 17.929C76.7333 18.1533 77.2622 17.9843 78.0289 17.589C78.3043 17.43 78.3043 17.43 78.5054 17.0794C79.0488 17.251 79.0488 17.251 79.2388 17.5586C79.2652 17.6305 79.2916 17.7024 79.3187 17.7765C78.6867 18.4677 77.9871 18.9969 77.0341 19.0822C75.9998 19.1081 75.2652 18.9052 74.4027 18.3356C73.7131 17.6139 73.2952 16.7341 73.2695 15.7324C73.3143 14.765 73.6321 13.9976 74.2575 13.2599C75.5729 12.1691 77.0169 11.9964 78.4764 12.9113ZM75.0345 13.8698C74.5716 14.4228 74.5716 14.4228 74.4391 15.1043C75.781 15.1043 77.1229 15.1043 78.5054 15.1043C78.3836 14.3729 78.2424 13.9662 77.6631 13.4995C76.7131 13.0893 75.8301 13.2126 75.0345 13.8698Z" fill="#D2D2D2"/>
<path d="M85.2411 12.6643C85.8344 13.1415 86.0354 13.6675 86.1705 14.407C86.1989 14.7683 86.1978 15.1267 86.1932 15.4889C86.1929 15.5882 86.1926 15.6875 86.1922 15.7897C86.1909 16.1034 86.188 16.417 86.185 16.7306C86.1839 16.9447 86.1828 17.1588 86.1819 17.3728C86.1793 17.8946 86.1753 18.4164 86.1705 18.9381C85.8255 18.9381 85.4804 18.9381 85.1249 18.9381C85.1232 18.8169 85.1215 18.6957 85.1197 18.5708C85.113 18.1167 85.104 17.6626 85.0944 17.2086C85.0905 17.0129 85.0873 16.8171 85.0846 16.6214C85.0924 15.123 85.0923 15.123 84.66 13.7099C84.1652 13.4023 83.694 13.3096 83.1207 13.4194C82.5146 13.6195 82.207 13.9735 81.919 14.5368C81.6294 15.3395 81.6882 16.2356 81.6757 17.0792C81.6718 17.2597 81.6678 17.4401 81.6637 17.6206C81.6539 18.0598 81.6461 18.4989 81.6394 18.9381C81.2943 18.9381 80.9493 18.9381 80.5938 18.9381C80.5938 16.8294 80.5938 14.7207 80.5938 12.5481C80.9387 12.5481 81.2839 12.5481 81.6394 12.5481C81.6777 12.7781 81.7161 13.0082 81.7556 13.2452C81.8049 13.1975 81.8541 13.1499 81.9049 13.1008C82.8725 12.212 84.0621 12.0597 85.2411 12.6643Z" fill="#D2D2D2"/>
<path d="M91.633 12.5479C91.9781 12.5479 92.3231 12.5479 92.6787 12.5479C92.6803 12.6656 92.682 12.7833 92.6838 12.9045C92.6906 13.3457 92.6995 13.7867 92.7091 14.2278C92.713 14.4178 92.7162 14.6079 92.7189 14.798C92.7235 16.2671 92.7235 16.2671 93.1434 17.6599C93.6314 18.0259 94.0541 18.0727 94.6538 18.0084C95.1969 17.8061 95.5044 17.568 95.8156 17.079C96.0121 16.5002 96.0814 15.9826 96.0961 15.373C96.0983 15.2916 96.1006 15.2103 96.1029 15.1264C96.1097 14.8696 96.1152 14.6128 96.1206 14.3559C96.125 14.1805 96.1295 14.0051 96.1342 13.8297C96.1453 13.4025 96.155 12.9752 96.1641 12.5479C96.5092 12.5479 96.8543 12.5479 97.2098 12.5479C97.2098 14.6566 97.2098 16.7653 97.2098 18.9379C96.8647 18.9379 96.5196 18.9379 96.1641 18.9379C96.1066 18.5928 96.1066 18.5928 96.0479 18.2408C95.9408 18.3143 95.9408 18.3143 95.8315 18.3892C95.7376 18.4529 95.6437 18.5165 95.5469 18.5821C95.4074 18.6771 95.4074 18.6771 95.2651 18.7741C94.671 19.1444 94.0536 19.1045 93.3757 19.0541C92.6945 18.8642 92.2161 18.5057 91.8654 17.8922C91.6625 17.2133 91.6011 16.6121 91.6103 15.9063C91.6106 15.8096 91.611 15.7129 91.6113 15.6133C91.6126 15.3079 91.6155 15.0026 91.6185 14.6972C91.6197 14.4888 91.6207 14.2803 91.6217 14.0718C91.6242 13.5638 91.6282 13.0558 91.633 12.5479Z" fill="#D2D2D2"/>
<path d="M113.011 12.6641C113.279 12.8795 113.482 13.1002 113.709 13.3612C113.577 13.7437 113.477 13.8255 113.113 14.0293C113.003 14.0772 112.893 14.1251 112.779 14.1745C112.722 14.0835 112.664 13.9924 112.605 13.8986C112.229 13.5042 111.922 13.4022 111.385 13.3612C110.936 13.3952 110.936 13.3952 110.572 13.5936C110.38 13.9254 110.38 13.9254 110.339 14.2907C110.378 14.4057 110.416 14.5207 110.455 14.6392C111.128 14.9365 111.835 15.1263 112.541 15.3291C113.159 15.5444 113.549 15.7814 113.855 16.3797C114.015 16.8179 114.044 17.2044 113.941 17.66C113.621 18.2899 113.216 18.6906 112.547 18.938C111.65 19.2069 110.697 19.1564 109.864 18.7301C109.412 18.4438 109.115 18.1686 108.945 17.66C109.272 17.4204 109.272 17.4204 109.642 17.1953C109.991 17.3114 109.991 17.3114 110.209 17.5365C110.594 17.9104 110.905 17.9966 111.436 18.0448C111.904 18.0038 112.321 17.8861 112.663 17.5438C112.721 17.147 112.721 17.147 112.663 16.7305C112.109 16.2989 111.438 16.2081 110.768 16.052C110.192 15.871 109.682 15.5745 109.294 15.104C109.101 14.5253 109.108 14.0232 109.308 13.4556C109.674 12.9075 110.049 12.5705 110.681 12.3955C111.511 12.232 112.249 12.2872 113.011 12.6641Z" fill="#D2D2D2"/>
<path d="M88.2653 10.689C88.572 10.689 88.8787 10.689 89.1947 10.689C89.1947 11.3024 89.1947 11.9159 89.1947 12.5479C89.8082 12.5479 90.4216 12.5479 91.0537 12.5479C91.0537 12.8546 91.0537 13.1613 91.0537 13.4773C90.4402 13.4773 89.8268 13.4773 89.1947 13.4773C89.2087 14.0293 89.223 14.5812 89.238 15.1331C89.243 15.3208 89.2479 15.5084 89.2525 15.696C89.2593 15.9663 89.2666 16.2365 89.2742 16.5067C89.2771 16.6318 89.2771 16.6318 89.28 16.7595C89.2926 17.188 89.3271 17.5912 89.4271 18.0085C89.9887 18.0181 90.5003 18.003 91.0537 17.8923C91.0537 18.199 91.0537 18.5057 91.0537 18.8217C90.4944 19.12 89.9282 19.1174 89.3109 19.0541C88.878 18.9045 88.6801 18.7924 88.4032 18.4296C88.1359 17.8386 88.1331 17.2627 88.1377 16.6229C88.1379 16.536 88.1381 16.4492 88.1382 16.3597C88.1389 16.0839 88.1404 15.8081 88.1418 15.5323C88.1424 15.3447 88.1429 15.157 88.1434 14.9693C88.1447 14.5107 88.1467 14.0521 88.1491 13.5935C87.7274 13.5552 87.3056 13.5168 86.8711 13.4773C86.8711 13.1706 86.8711 12.8639 86.8711 12.5479C87.5037 12.4904 87.5037 12.4904 88.1491 12.4317C88.1477 12.3156 88.1464 12.1996 88.145 12.08C88.144 11.9301 88.1429 11.7801 88.1418 11.6257C88.1405 11.4761 88.1391 11.3265 88.1377 11.1723C88.1491 10.8051 88.1491 10.8051 88.2653 10.689Z" fill="#D2D2D2"/>
<path d="M102.437 12.4318C102.36 12.7768 102.283 13.1219 102.204 13.4774C102.003 13.463 102.003 13.463 101.798 13.4484C101.233 13.4494 100.804 13.6155 100.346 13.9421C99.8761 14.5475 99.8609 15.1542 99.8438 15.8973C99.8413 15.9843 99.8389 16.0713 99.8364 16.161C99.8288 16.438 99.822 16.7149 99.8151 16.9919C99.8101 17.1801 99.8051 17.3683 99.7999 17.5565C99.7875 18.017 99.7758 18.4775 99.7644 18.938C99.4194 18.938 99.0743 18.938 98.7188 18.938C98.7188 16.8293 98.7188 14.7206 98.7188 12.548C99.0637 12.548 99.4089 12.548 99.7644 12.548C99.8028 12.7397 99.841 12.9314 99.8805 13.1289C99.9811 13.0378 100.082 12.9467 100.186 12.8529C100.849 12.3046 101.612 12.1568 102.437 12.4318Z" fill="#D2D2D2"/>
</svg>
