<svg width="117" height="28" viewBox="0 0 117 28" fill="none" xmlns="http://www.w3.org/2000/svg">
<g filter="url(#filter0_i_411_7818)">
<path fill-rule="evenodd" clip-rule="evenodd" d="M32.5905 20.3919H29.9246V17.9703H32.5905C33.6308 17.9703 34.0249 18.3242 34.0249 19.1967C34.0249 20.0364 33.6308 20.3919 32.5905 20.3919ZM34.319 15.2568H25.793V26.7875H29.9246V23.2016H34.3488C37.2774 23.2016 38.3327 21.4909 38.3327 19.2781C38.3327 16.7098 37.249 15.2568 34.319 15.2568Z" fill="#D2D2D2"/>
</g>
<g filter="url(#filter1_i_411_7818)">
<path fill-rule="evenodd" clip-rule="evenodd" d="M39.6914 26.7877H50.8086V23.978H43.823V22.4273H50.3116V19.6176H43.823V18.0668H50.8086V15.2556H39.6914V26.7877Z" fill="#D2D2D2"/>
</g>
<g filter="url(#filter2_i_411_7818)">
<path fill-rule="evenodd" clip-rule="evenodd" d="M59.3389 20.3919H56.6731V17.9703H59.3389C60.3793 17.9703 60.7749 18.3242 60.7749 19.1967C60.7749 20.0364 60.3793 20.3919 59.3389 20.3919ZM61.0674 15.2568H52.543V26.7875H56.6731V23.2016H61.0972C64.0273 23.2016 65.081 21.4909 65.081 19.2781C65.081 16.7098 63.9974 15.2568 61.0674 15.2568Z" fill="#D2D2D2"/>
</g>
<g filter="url(#filter3_i_411_7818)">
<path fill-rule="evenodd" clip-rule="evenodd" d="M76.0928 19.6978L71.1566 18.8906C70.7462 18.8254 70.6149 18.6166 70.6149 18.2922C70.6149 17.8079 71.0402 17.4687 72.2702 17.4687C72.7239 17.4687 73.1926 17.5338 73.5583 17.7116C73.9404 17.873 74.1897 18.1634 74.1897 18.6314H78.993C78.8467 16.1935 76.9287 14.853 72.2702 14.853C68.8714 14.853 66.2206 15.6602 66.2206 18.6492C66.2206 20.2621 67.0549 21.5552 69.0759 21.8943L73.7926 22.6689C74.3509 22.7667 74.5405 23.1059 74.5405 23.445C74.5405 23.9931 74.1897 24.3811 72.9001 24.3811C72.2552 24.3811 71.8015 24.2997 71.494 24.1397C71.1999 23.9605 71.0686 23.7028 71.0537 23.3147H66.0742C66.0892 26.7065 69.5611 27.1923 72.7389 27.1923C77.3824 27.1923 79.4617 25.8667 79.4617 23.057C79.4617 21.1034 78.1736 20.037 76.0928 19.6978Z" fill="#D2D2D2"/>
</g>
<g filter="url(#filter4_i_411_7818)">
<path fill-rule="evenodd" clip-rule="evenodd" d="M80.8125 26.7888H84.9426V15.2568H80.8125V26.7888Z" fill="#D2D2D2"/>
</g>
<g filter="url(#filter5_i_411_7818)">
<path fill-rule="evenodd" clip-rule="evenodd" d="M93.3788 17.7595C94.9758 17.7595 95.4729 18.9548 95.5894 19.7783H100.249C99.706 15.2075 95.8684 14.8535 93.3788 14.8535C90.874 14.8535 86.2305 15.0461 86.2305 21.0223C86.2305 26.9972 90.874 27.1913 93.3788 27.1913C95.8983 27.1913 97.4805 26.7233 98.491 25.8835C99.5165 25.0422 99.9851 23.8158 100.249 22.2976H95.5894C95.2535 23.687 94.4773 24.2838 93.1727 24.2838C91.6652 24.2838 90.6249 23.364 90.6249 21.0223C90.6249 18.6807 91.6935 17.7595 93.3788 17.7595Z" fill="#D2D2D2"/>
</g>
<g filter="url(#filter6_i_411_7818)">
<path fill-rule="evenodd" clip-rule="evenodd" d="M108.41 24.2841C106.725 24.2841 105.655 23.3629 105.655 21.0212C105.655 18.6796 106.725 17.7598 108.41 17.7598C110.093 17.7598 111.163 18.6796 111.163 21.0212C111.163 23.3629 110.093 24.2841 108.41 24.2841ZM108.41 14.8523C105.905 14.8523 101.262 15.0464 101.262 21.0212C101.262 26.9975 105.905 27.1916 108.41 27.1916C110.915 27.1916 115.559 26.9975 115.559 21.0212C115.559 15.0464 110.915 14.8523 108.41 14.8523Z" fill="#D2D2D2"/>
</g>
<g filter="url(#filter7_i_411_7818)">
<path fill-rule="evenodd" clip-rule="evenodd" d="M16.6232 14.2251C16.2888 13.3261 15.8993 12.4567 15.4634 11.6257C16.4515 10.8866 17.2829 10.0602 17.889 9.18488C18.3815 10.0188 18.7741 10.8941 19.0561 11.7858C18.4278 12.6789 17.5919 13.498 16.6232 14.2251ZM17.2098 17.8791C16.4336 18.4478 15.5335 18.9707 14.5394 19.3957C14.0245 18.8137 13.5155 18.1458 13.017 17.417C14.2603 16.9415 15.4321 16.3283 16.468 15.6129C16.7515 16.358 17.0023 17.1163 17.2098 17.8791ZM11.3795 20.317C10.3675 19.9201 9.43763 19.2832 8.61518 18.4715C9.89438 18.3456 11.1841 18.0583 12.4229 17.6332C12.9722 18.3486 13.5468 19.0003 14.1379 19.5617C13.2767 19.8979 12.3512 20.16 11.3795 20.317ZM6.20159 14.9213C7.54347 14.8709 8.91372 14.6251 10.2347 14.2251C10.7123 15.1079 11.2303 15.9581 11.7781 16.7505C10.4526 17.2096 9.10776 17.5118 7.85394 17.6302C7.20465 16.8305 6.6464 15.9151 6.20159 14.9213ZM5.10003 10.8704C6.21204 10.8541 7.3569 10.6645 8.46742 10.3402C8.81072 11.2585 9.20776 12.1827 9.64958 13.0877C8.38085 13.4846 7.06434 13.7408 5.76426 13.8134C5.43885 12.8714 5.21347 11.8805 5.10003 10.8704ZM3.51037 4.89108C3.51037 3.16557 6.84045 1.1231 9.4227 1.1231C11.1064 1.1231 11.4288 1.97178 11.4288 2.37021C11.4288 2.61903 11.3571 2.87675 11.2273 3.13447C10.3437 2.89749 9.41822 2.76271 8.45846 2.76271L8.44801 2.83973C9.34807 2.94489 10.2138 3.1552 11.0392 3.45143C10.7556 3.86467 10.3347 4.27198 9.82124 4.6393C9.18239 4.14016 8.55846 3.73729 7.97634 3.45439L7.90171 3.50624C8.40324 3.91651 8.92118 4.38158 9.44211 4.89553C8.90028 5.23619 8.28233 5.52945 7.63901 5.74718C7.44795 5.0866 7.28525 4.45564 7.15688 3.86763L7.05538 3.89726C7.05837 4.50451 7.12255 5.16954 7.23749 5.87308C6.62102 6.04785 5.98965 6.14856 5.38513 6.14856C5.67768 4.92663 6.05382 4.15941 6.16278 3.92687L6.08219 3.89577C5.95083 4.09425 5.40752 4.85258 4.98361 6.12931C4.02533 6.03452 3.51037 5.58426 3.51037 4.89108ZM14.1857 5.12066C13.7409 5.77236 13.0975 6.42406 12.3109 7.02243C11.7363 6.36629 11.1497 5.77532 10.5661 5.25989C11.1646 4.81851 11.6527 4.32974 11.9841 3.83208C12.7648 4.18755 13.5006 4.623 14.1857 5.12066ZM7.90022 6.60327C8.70922 6.34408 9.45852 5.98712 10.1063 5.57388C10.6497 6.14856 11.193 6.7736 11.7274 7.44011C10.8422 8.03256 9.82124 8.5554 8.72266 8.94938C8.41667 8.14809 8.14053 7.36013 7.90022 6.60327ZM5.01494 9.38631C5.01494 8.508 5.09257 7.72596 5.20601 7.04316C5.9568 7.03576 6.69715 6.92912 7.40018 6.74546C7.56586 7.52305 7.78827 8.33768 8.05844 9.16859C7.07927 9.46482 6.05233 9.65736 5.02092 9.70476C5.01794 9.59812 5.01494 9.49296 5.01494 9.38631ZM14.8231 12.0775C15.2753 12.901 15.6932 13.7527 16.0664 14.6236C14.9574 15.3789 13.7095 16.0158 12.4243 16.5121C11.9258 15.7166 11.4408 14.865 10.9811 13.9838C12.3662 13.4965 13.6782 12.8433 14.8231 12.0775ZM10.4019 12.8329C9.96602 11.9369 9.55854 11.0215 9.18389 10.1121C10.3855 9.69439 11.5244 9.12859 12.5139 8.46505C13.0901 9.24709 13.6454 10.0736 14.1678 10.9386C13.0468 11.688 11.7631 12.3396 10.4019 12.8329ZM17.1934 8.13032C16.6038 8.95679 15.7903 9.75511 14.8201 10.4794C14.2961 9.60256 13.7289 8.77906 13.1379 8.02219C13.9857 7.37494 14.6872 6.65659 15.1723 5.9101C15.9321 6.57809 16.6112 7.32755 17.1934 8.13032ZM20.3577 8.14216L20.2816 8.15846C20.295 9.17896 20.0145 10.1521 19.5129 11.0629C19.2472 10.195 18.8427 9.32411 18.3188 8.48875C18.7397 7.70671 18.9786 6.89505 18.9786 6.08044C18.9786 4.7726 18.1412 4.07943 18.0009 3.97575L17.9471 4.02166C18.0531 4.20977 18.2397 4.63485 18.2397 5.31765C18.2397 6.02859 18.0128 6.75879 17.6113 7.47714C17.0083 6.69955 16.2978 5.97379 15.5022 5.33542C15.7619 4.79925 15.9052 4.25569 15.9052 3.71803C15.9052 2.17173 14.429 1.33045 13.4036 1.15568L13.3856 1.21641C13.7036 1.31712 14.8708 1.85477 14.8708 3.23371C14.8708 3.67212 14.738 4.13571 14.4947 4.60375C13.7842 4.14164 13.017 3.7521 12.208 3.44996C12.3811 3.10484 12.4767 2.76122 12.4767 2.43241C12.4767 1.37045 11.4482 0.807617 10.0735 0.807617C6.67775 0.807617 2.69689 3.23815 2.69689 5.45984C2.69689 6.24484 3.3626 6.91876 4.73135 7.02836C4.56418 7.74967 4.44924 8.5865 4.44924 9.54479C4.44924 9.60108 4.45073 9.65884 4.45223 9.71513C2.51329 9.69291 1.29531 8.73314 1.29531 7.33792C1.29531 6.89209 1.38785 6.59882 1.41471 6.51293L1.34605 6.48774C1.25053 6.65067 0.868407 7.39271 0.868407 8.15401C0.868407 9.48259 2.14461 10.7223 4.50447 10.86C4.59253 11.9132 4.78359 12.91 5.0657 13.8356C5.05376 13.8356 5.04181 13.8356 5.02838 13.8356C1.77593 13.8356 0.56988 12.3337 0.423602 11.4954H0.357926C0.283294 13.0758 1.90728 14.8457 5.45378 14.9242C5.87471 15.9596 6.41504 16.8852 7.04941 17.6806C6.93149 17.685 6.81208 17.6896 6.69715 17.6896C4.66418 17.6896 2.92376 17.1074 2.04013 16.3402L1.98341 16.3832C2.33567 17.0067 4.00443 18.5456 7.19868 18.5456C7.40167 18.5456 7.60766 18.5412 7.81514 18.5323C8.6734 19.378 9.65704 20.0179 10.7198 20.4059C9.49584 20.5377 8.2077 20.4978 6.88821 20.2267L6.86134 20.3096C7.24345 20.4489 8.54205 20.9895 10.5213 20.9895C15.0007 20.9895 18.0278 18.2301 19.2457 16.1329L19.1592 16.075C18.7293 16.595 18.1875 17.1207 17.5546 17.6184C17.4128 16.8141 17.2158 16.0217 16.9739 15.2486C17.9218 14.5303 18.7308 13.723 19.3368 12.8521C19.5144 13.6934 19.5905 14.5391 19.5502 15.3701L19.6592 15.3982C19.7965 14.9613 19.8757 14.357 19.8816 13.3824C19.8816 12.978 19.8428 12.5648 19.7711 12.1472C20.2607 11.254 20.5398 10.3076 20.5398 9.33299C20.5398 8.66352 20.3861 8.23548 20.3577 8.14216Z" fill="#D2D2D2"/>
</g>
<defs>
<filter id="filter0_i_411_7818" x="25.793" y="15.2568" width="12.5391" height="12.4728" filterUnits="userSpaceOnUse" color-interpolation-filters="sRGB">
<feFlood flood-opacity="0" result="BackgroundImageFix"/>
<feBlend mode="normal" in="SourceGraphic" in2="BackgroundImageFix" result="shape"/>
<feColorMatrix in="SourceAlpha" type="matrix" values="0 0 0 0 0 0 0 0 0 0 0 0 0 0 0 0 0 0 127 0" result="hardAlpha"/>
<feOffset dy="0.942308"/>
<feGaussianBlur stdDeviation="0.471154"/>
<feComposite in2="hardAlpha" operator="arithmetic" k2="-1" k3="1"/>
<feColorMatrix type="matrix" values="0 0 0 0 0.109804 0 0 0 0 0.109804 0 0 0 0 0.109804 0 0 0 0.12 0"/>
<feBlend mode="normal" in2="shape" result="effect1_innerShadow_411_7818"/>
</filter>
<filter id="filter1_i_411_7818" x="39.6914" y="15.2556" width="11.1172" height="12.4745" filterUnits="userSpaceOnUse" color-interpolation-filters="sRGB">
<feFlood flood-opacity="0" result="BackgroundImageFix"/>
<feBlend mode="normal" in="SourceGraphic" in2="BackgroundImageFix" result="shape"/>
<feColorMatrix in="SourceAlpha" type="matrix" values="0 0 0 0 0 0 0 0 0 0 0 0 0 0 0 0 0 0 127 0" result="hardAlpha"/>
<feOffset dy="0.942308"/>
<feGaussianBlur stdDeviation="0.471154"/>
<feComposite in2="hardAlpha" operator="arithmetic" k2="-1" k3="1"/>
<feColorMatrix type="matrix" values="0 0 0 0 0.109804 0 0 0 0 0.109804 0 0 0 0 0.109804 0 0 0 0.12 0"/>
<feBlend mode="normal" in2="shape" result="effect1_innerShadow_411_7818"/>
</filter>
<filter id="filter2_i_411_7818" x="52.543" y="15.2568" width="12.5391" height="12.4728" filterUnits="userSpaceOnUse" color-interpolation-filters="sRGB">
<feFlood flood-opacity="0" result="BackgroundImageFix"/>
<feBlend mode="normal" in="SourceGraphic" in2="BackgroundImageFix" result="shape"/>
<feColorMatrix in="SourceAlpha" type="matrix" values="0 0 0 0 0 0 0 0 0 0 0 0 0 0 0 0 0 0 127 0" result="hardAlpha"/>
<feOffset dy="0.942308"/>
<feGaussianBlur stdDeviation="0.471154"/>
<feComposite in2="hardAlpha" operator="arithmetic" k2="-1" k3="1"/>
<feColorMatrix type="matrix" values="0 0 0 0 0.109804 0 0 0 0 0.109804 0 0 0 0 0.109804 0 0 0 0.12 0"/>
<feBlend mode="normal" in2="shape" result="effect1_innerShadow_411_7818"/>
</filter>
<filter id="filter3_i_411_7818" x="66.0742" y="14.853" width="13.3867" height="13.2817" filterUnits="userSpaceOnUse" color-interpolation-filters="sRGB">
<feFlood flood-opacity="0" result="BackgroundImageFix"/>
<feBlend mode="normal" in="SourceGraphic" in2="BackgroundImageFix" result="shape"/>
<feColorMatrix in="SourceAlpha" type="matrix" values="0 0 0 0 0 0 0 0 0 0 0 0 0 0 0 0 0 0 127 0" result="hardAlpha"/>
<feOffset dy="0.942308"/>
<feGaussianBlur stdDeviation="0.471154"/>
<feComposite in2="hardAlpha" operator="arithmetic" k2="-1" k3="1"/>
<feColorMatrix type="matrix" values="0 0 0 0 0.109804 0 0 0 0 0.109804 0 0 0 0 0.109804 0 0 0 0.12 0"/>
<feBlend mode="normal" in2="shape" result="effect1_innerShadow_411_7818"/>
</filter>
<filter id="filter4_i_411_7818" x="80.8125" y="15.2568" width="4.12891" height="12.4743" filterUnits="userSpaceOnUse" color-interpolation-filters="sRGB">
<feFlood flood-opacity="0" result="BackgroundImageFix"/>
<feBlend mode="normal" in="SourceGraphic" in2="BackgroundImageFix" result="shape"/>
<feColorMatrix in="SourceAlpha" type="matrix" values="0 0 0 0 0 0 0 0 0 0 0 0 0 0 0 0 0 0 127 0" result="hardAlpha"/>
<feOffset dy="0.942308"/>
<feGaussianBlur stdDeviation="0.471154"/>
<feComposite in2="hardAlpha" operator="arithmetic" k2="-1" k3="1"/>
<feColorMatrix type="matrix" values="0 0 0 0 0.109804 0 0 0 0 0.109804 0 0 0 0 0.109804 0 0 0 0.12 0"/>
<feBlend mode="normal" in2="shape" result="effect1_innerShadow_411_7818"/>
</filter>
<filter id="filter5_i_411_7818" x="86.2305" y="14.8535" width="14.0195" height="13.2802" filterUnits="userSpaceOnUse" color-interpolation-filters="sRGB">
<feFlood flood-opacity="0" result="BackgroundImageFix"/>
<feBlend mode="normal" in="SourceGraphic" in2="BackgroundImageFix" result="shape"/>
<feColorMatrix in="SourceAlpha" type="matrix" values="0 0 0 0 0 0 0 0 0 0 0 0 0 0 0 0 0 0 127 0" result="hardAlpha"/>
<feOffset dy="0.942308"/>
<feGaussianBlur stdDeviation="0.471154"/>
<feComposite in2="hardAlpha" operator="arithmetic" k2="-1" k3="1"/>
<feColorMatrix type="matrix" values="0 0 0 0 0.109804 0 0 0 0 0.109804 0 0 0 0 0.109804 0 0 0 0.12 0"/>
<feBlend mode="normal" in2="shape" result="effect1_innerShadow_411_7818"/>
</filter>
<filter id="filter6_i_411_7818" x="101.262" y="14.8523" width="14.2969" height="13.2817" filterUnits="userSpaceOnUse" color-interpolation-filters="sRGB">
<feFlood flood-opacity="0" result="BackgroundImageFix"/>
<feBlend mode="normal" in="SourceGraphic" in2="BackgroundImageFix" result="shape"/>
<feColorMatrix in="SourceAlpha" type="matrix" values="0 0 0 0 0 0 0 0 0 0 0 0 0 0 0 0 0 0 127 0" result="hardAlpha"/>
<feOffset dy="0.942308"/>
<feGaussianBlur stdDeviation="0.471154"/>
<feComposite in2="hardAlpha" operator="arithmetic" k2="-1" k3="1"/>
<feColorMatrix type="matrix" values="0 0 0 0 0.109804 0 0 0 0 0.109804 0 0 0 0 0.109804 0 0 0 0.12 0"/>
<feBlend mode="normal" in2="shape" result="effect1_innerShadow_411_7818"/>
</filter>
<filter id="filter7_i_411_7818" x="0.355469" y="0.807617" width="20.1836" height="21.1242" filterUnits="userSpaceOnUse" color-interpolation-filters="sRGB">
<feFlood flood-opacity="0" result="BackgroundImageFix"/>
<feBlend mode="normal" in="SourceGraphic" in2="BackgroundImageFix" result="shape"/>
<feColorMatrix in="SourceAlpha" type="matrix" values="0 0 0 0 0 0 0 0 0 0 0 0 0 0 0 0 0 0 127 0" result="hardAlpha"/>
<feOffset dy="0.942308"/>
<feGaussianBlur stdDeviation="0.471154"/>
<feComposite in2="hardAlpha" operator="arithmetic" k2="-1" k3="1"/>
<feColorMatrix type="matrix" values="0 0 0 0 0.109804 0 0 0 0 0.109804 0 0 0 0 0.109804 0 0 0 0.12 0"/>
<feBlend mode="normal" in2="shape" result="effect1_innerShadow_411_7818"/>
</filter>
</defs>
</svg>
