<svg width="83" height="28" viewBox="0 0 83 28" fill="none" xmlns="http://www.w3.org/2000/svg">
<g clip-path="url(#clip0_411_7838)">
<path fill-rule="evenodd" clip-rule="evenodd" d="M12.5714 6.96856L6.48774 10.4795L12.5672 13.9953L6.48222 17.5122L0.602656 14.1177C0.472531 14.0425 0.391642 13.9031 0.391642 13.7527L0.386719 7.2042C0.386719 7.05297 0.466903 6.9137 0.597732 6.83844L12.3597 0.0564462C12.4905 -0.0188154 12.6509 -0.0188154 12.7816 0.0564462L24.3185 6.72097C24.5056 6.82929 24.5056 7.1001 24.3185 7.20841L18.6598 10.4798L12.5714 6.96856ZM48.2881 16.6837V9.89752H51.2874C51.3646 9.89752 51.428 9.83421 51.428 9.75684V7.1262C51.428 7.04883 51.3646 6.98553 51.2874 6.98553H48.2881V3.72747C48.2881 3.6107 48.1939 3.51646 48.077 3.51646H45.0695C44.9526 3.51646 44.8584 3.6107 44.8584 3.72747V6.98553H43.5389C43.4222 6.98553 43.3279 7.07977 43.3279 7.19653V9.68651C43.3279 9.80327 43.4222 9.89752 43.5389 9.89752H44.8584V16.6583C44.8584 19.5619 46.2117 21.0137 49.1997 21.0137H51.217C51.3337 21.0137 51.428 20.9194 51.428 20.8027V18.2368C51.428 18.1201 51.3337 18.0258 51.217 18.0258H49.7821C49.2418 18.0258 48.8579 17.9203 48.6299 17.7092C48.4021 17.4982 48.2881 17.1564 48.2881 16.6837ZM32.3426 18.9372C32.8743 19.6462 33.5961 20.2075 34.5076 20.6211C35.4191 21.0347 36.4834 21.2414 37.5975 21.2414C38.7117 21.2414 39.6866 21.0601 40.5223 20.6971C41.3578 20.3341 41.9993 19.8319 42.4466 19.1904C42.894 18.549 43.1177 17.823 43.1177 17.0128C43.1008 16.0843 42.8518 15.3374 42.3706 14.7718C41.8895 14.2063 41.3199 13.7885 40.6615 13.5184C40.0031 13.2483 39.1676 12.9867 38.1546 12.7334C37.1587 12.4802 36.4243 12.2312 35.9516 11.9864C35.4789 11.7416 35.2426 11.3829 35.2426 10.9103C35.2426 10.4882 35.4157 10.159 35.7617 9.9227C36.1078 9.68637 36.6016 9.5682 37.2431 9.5682C37.9352 9.5682 38.5 9.71802 38.9016 10.062C39.4383 10.5213 39.7478 10.9468 39.892 11.1733C39.9518 11.2669 40.0741 11.2971 40.1712 11.2437L42.4157 10.0036C42.5226 9.94452 42.5571 9.80736 42.4917 9.70466C42.0752 9.04982 41.6997 8.54971 41.1553 8.06227C40.1866 7.19429 39.0156 6.75749 37.3444 6.75749C36.2133 6.75749 35.23 6.94319 34.3943 7.31458C33.5588 7.68596 32.9173 8.19239 32.47 8.83387C32.0226 9.47535 31.7989 10.1844 31.7989 10.9609C31.7989 11.9062 32.0394 12.6575 32.5206 13.2145C33.0017 13.7715 33.5756 14.1852 34.2425 14.4553C34.9093 14.7253 35.7659 14.987 36.8126 15.2403C37.8255 15.5103 38.564 15.7594 39.0282 15.9872C39.4925 16.2152 39.7246 16.557 39.7246 17.0128C39.7246 17.4348 39.5346 17.7809 39.1548 18.051C38.7751 18.321 38.2643 18.4561 37.5722 18.4561C36.8801 18.4561 36.3019 18.2789 35.8377 17.9243C35.4157 17.6022 34.9444 17.1598 34.5786 16.6147C34.516 16.5211 34.3923 16.493 34.2959 16.5507L31.9761 17.9343C31.8812 17.9911 31.8461 18.1108 31.8946 18.2099C32.0176 18.4603 32.1668 18.703 32.3426 18.9372ZM52.6132 10.1759C53.1786 9.07866 53.9467 8.2346 54.9174 7.64376C55.888 7.05292 56.9726 6.75749 58.1713 6.75749C59.2179 6.75749 60.1337 6.96851 60.9186 7.39054C61.7036 7.81257 62.3325 8.34432 62.8052 8.98581L62.9458 7.12606C62.9458 7.04869 63.0091 6.98539 63.0864 6.98539H66.1644C66.2812 6.98539 66.3754 7.07965 66.3754 7.19641V20.8026C66.3754 20.9193 66.2812 21.0136 66.1644 21.0136H63.0864C63.0091 21.0136 62.9458 20.9502 62.9458 20.873L62.8052 18.9625C62.3493 19.6209 61.7205 20.1653 60.9186 20.5958C60.1168 21.0262 59.1925 21.2414 58.146 21.2414C56.9642 21.2414 55.888 20.9376 54.9174 20.3299C53.9467 19.7222 53.1786 18.8655 52.6132 17.7598C52.0476 16.654 51.7649 15.3837 51.7649 13.9488C51.7649 12.514 52.0476 11.2732 52.6132 10.1759ZM62.2987 11.7839C61.9611 11.1677 61.5053 10.695 60.9313 10.3658C60.3573 10.0367 59.7412 9.87206 59.0828 9.87206C58.4244 9.87206 57.8167 10.0324 57.2596 10.3532C56.7026 10.6739 56.251 11.1424 55.9049 11.7585C55.5589 12.3747 55.3858 13.1048 55.3858 13.9488C55.3858 14.7929 55.5589 15.5315 55.9049 16.1645C56.251 16.7976 56.7068 17.2829 57.2724 17.6205C57.8378 17.9582 58.4414 18.1269 59.0828 18.1269C59.7243 18.1269 60.3573 17.9624 60.9313 17.6331C61.5053 17.304 61.9611 16.8313 62.2987 16.2152C62.6363 15.5989 62.8052 14.8605 62.8052 13.9995C62.8052 13.1386 62.6363 12.4 62.2987 11.7839ZM71.1754 7.69482C70.1793 8.30255 69.3901 9.15082 68.8077 10.2397C68.2253 11.3285 67.9341 12.5735 67.9341 13.9745C67.9341 15.3757 68.2211 16.625 68.7951 17.7222C69.369 18.8194 70.1498 19.6762 71.1373 20.2924C72.1248 20.9085 73.2094 21.2166 74.3912 21.2166C75.3872 21.2166 76.2818 21.014 77.0752 20.6089C77.8687 20.2038 78.5017 19.6974 78.9744 19.0896V25.3778C78.9744 25.4945 79.0687 25.5888 79.1854 25.5888H82.3338C82.4505 25.5888 82.5448 25.4945 82.5448 25.3778V7.19683C82.5448 7.08007 82.4505 6.98582 82.3338 6.98582H79.2558C79.1784 6.98582 79.115 7.04913 79.115 7.1265L78.9744 8.80898C78.5017 8.21814 77.8814 7.73281 77.1133 7.35298C76.3452 6.97316 75.4631 6.78324 74.4672 6.78324C73.2686 6.78324 72.1713 7.08711 71.1754 7.69482ZM77.0626 10.3536C77.6281 10.6743 78.0882 11.147 78.4427 11.7716C78.7971 12.3962 78.9744 13.139 78.9744 13.9999C78.9744 14.8609 78.7971 15.6036 78.4427 16.2283C78.0882 16.8528 77.6281 17.3255 77.0626 17.6462C76.4972 17.967 75.8767 18.1273 75.2522 18.1273C74.6275 18.1273 74.0324 17.967 73.4669 17.6462C72.9015 17.3255 72.4414 16.8486 72.0869 16.2156C71.7325 15.5825 71.5552 14.8355 71.5552 13.9745C71.5552 13.1137 71.7325 12.3751 72.0869 11.759C72.4414 11.1428 72.9015 10.6743 73.4669 10.3536C74.0324 10.0329 74.6106 9.87249 75.2522 9.87249C75.8936 9.87249 76.4972 10.0329 77.0626 10.3536ZM18.6598 10.4798L24.5419 13.8773C24.6721 13.9525 24.7529 14.0918 24.7529 14.2423L24.7607 20.7936C24.7614 20.9441 24.6805 21.0841 24.5497 21.1593L12.7829 27.9435C12.652 28.0187 12.4909 28.0187 12.3608 27.9435L0.814832 21.2698C0.62703 21.1615 0.62703 20.8907 0.814832 20.7824L6.48222 17.5122L12.5697 21.0257L18.6602 17.5187L12.5718 13.9948L18.6598 10.4798Z" fill="#D2D2D2"/>
</g>
<defs>
<clipPath id="clip0_411_7838">
<rect width="82.7273" height="28" fill="white" transform="translate(-0.00390625)"/>
</clipPath>
</defs>
</svg>
