<svg width="24" height="24" viewBox="0 0 24 24" fill="none" xmlns="http://www.w3.org/2000/svg">
<path d="M3.2957 20.6013L9.6597 14.2373M17.6737 11.4073L15.7687 17.1233C15.7382 17.2148 15.686 17.2975 15.6168 17.3645C15.5475 17.4315 15.4631 17.4808 15.3707 17.5083L3.6927 20.9803C3.58749 21.0116 3.47572 21.0134 3.36957 20.9855C3.26341 20.9576 3.16693 20.9012 3.09062 20.8223C3.01432 20.7434 2.96111 20.6451 2.93679 20.5381C2.91247 20.4311 2.91797 20.3194 2.9527 20.2153L6.7447 8.84133C6.77187 8.75966 6.8163 8.6848 6.87497 8.62182C6.93363 8.55884 7.00516 8.50922 7.0847 8.47633L12.4717 6.25833C12.5812 6.21309 12.7017 6.2013 12.8179 6.22444C12.9341 6.24757 13.0409 6.3046 13.1247 6.38833L17.5287 10.7933C17.6075 10.8721 17.6628 10.9713 17.6884 11.0797C17.714 11.1882 17.7089 11.3016 17.6737 11.4073Z" stroke="#D0FF71" stroke-width="1.5" stroke-linecap="round" stroke-linejoin="round"/>
<path d="M18.4024 3.18206L20.7664 5.54606C20.9441 5.71602 21.086 5.91975 21.1838 6.1453C21.2817 6.37085 21.3335 6.61367 21.3362 6.85951C21.3389 7.10535 21.2925 7.34926 21.1997 7.57692C21.1068 7.80457 20.9695 8.01139 20.7956 8.18524C20.6218 8.35909 20.4149 8.49646 20.1873 8.58928C19.9596 8.68211 19.7157 8.72853 19.4699 8.72581C19.224 8.72309 18.9812 8.67129 18.7557 8.57345C18.5301 8.47562 18.3264 8.33371 18.1564 8.15606L15.7914 5.79206C15.4579 5.44341 15.2741 4.978 15.2794 4.49551C15.2847 4.01302 15.4788 3.5518 15.82 3.2106C16.1612 2.86941 16.6224 2.67537 17.1049 2.67003C17.5874 2.6647 18.0538 2.84849 18.4024 3.18206Z" fill="#D0FF71" stroke="#D0FF71" stroke-width="1.5" stroke-linecap="round" stroke-linejoin="round"/>
<path d="M11.7801 12.1161C11.6417 11.9729 11.4762 11.8586 11.2932 11.78C11.1102 11.7014 10.9134 11.66 10.7142 11.6583C10.515 11.6565 10.3175 11.6945 10.1332 11.7699C9.94883 11.8453 9.78135 11.9567 9.64051 12.0975C9.49967 12.2384 9.38829 12.4059 9.31287 12.5902C9.23745 12.7745 9.1995 12.9721 9.20123 13.1712C9.20296 13.3704 9.24434 13.5672 9.32295 13.7502C9.40157 13.9332 9.51584 14.0988 9.6591 14.2371C9.94201 14.5104 10.3209 14.6616 10.7142 14.6581C11.1075 14.6547 11.4837 14.497 11.7618 14.2189C12.0399 13.9408 12.1977 13.5645 12.2011 13.1712C12.2045 12.7779 12.0533 12.399 11.7801 12.1161Z" stroke="#D0FF71" stroke-width="1.5" stroke-linecap="round" stroke-linejoin="round"/>
</svg>
